<svg width="210" height="180" viewBox="0 0 210 180" fill="none" xmlns="http://www.w3.org/2000/svg">
<path d="M99.7492 0C126.855 0 149.582 18.753 155.684 43.9936C160.61 41.6013 166.104 40.2227 171.964 40.2227C192.643 40.2227 209.409 56.989 209.409 77.668C209.409 98.347 192.643 115.113 171.964 115.113H99.7492C67.9602 115.113 42.1925 89.3456 42.1925 57.5566C42.1925 25.7677 67.9602 0 99.7492 0Z" fill="url(#paint0_radial_1_2909)"/>
<path style="mix-blend-mode:overlay" opacity="0.5" d="M92.3898 55.0022C107.372 42.838 113.231 24.3283 105.466 13.6441C97.7015 2.95994 79.2323 4.15608 64.2501 16.2999C49.268 28.4641 43.4292 46.9738 51.1939 57.658C58.9587 68.3422 77.4279 67.146 92.4101 54.9819L92.3898 55.0022Z" fill="url(#paint1_radial_1_2909)"/>
<path style="mix-blend-mode:overlay" opacity="0.3" d="M167.787 70.7953C176.018 64.105 179.242 53.9277 174.964 48.0686C170.686 42.1893 160.55 42.8583 152.318 49.5283C144.087 56.2186 140.864 66.3959 145.142 72.255C149.419 78.1343 159.556 77.4653 167.787 70.7953Z" fill="url(#paint2_radial_1_2909)"/>
<path style="mix-blend-mode:overlay" opacity="0.2" d="M186.074 85.3517C195.136 76.188 204.482 72.5996 206.976 77.3436C209.449 82.0674 204.138 93.3597 195.075 102.523C186.013 111.687 176.647 115.275 174.173 110.531C171.7 105.787 177.012 94.5153 186.074 85.3517Z" fill="url(#paint3_radial_1_2909)"/>
<path d="M58.1478 31.1199C85.2535 31.1199 107.98 49.8729 114.083 75.1135C119.009 72.7212 124.523 71.3426 130.362 71.3426C151.041 71.3426 167.807 88.1089 167.807 108.788C167.807 129.467 151.041 146.233 130.362 146.233H58.1478C26.3588 146.233 0.591187 120.465 0.591187 88.6765C0.591187 56.8876 26.3588 31.1199 58.1478 31.1199Z" fill="url(#paint4_radial_1_2909)"/>
<path style="mix-blend-mode:overlay" d="M50.7682 86.1221C65.7504 73.9579 71.6094 55.4482 63.8446 44.764C56.0799 34.0798 37.631 35.276 22.6285 47.4199C7.64637 59.584 1.80758 78.0937 9.57236 88.7779C17.3574 99.4621 35.8063 98.2659 50.7885 86.1221H50.7682Z" fill="url(#paint5_radial_1_2909)"/>
<path style="mix-blend-mode:overlay" opacity="0.4" d="M126.186 101.915C134.417 95.2249 137.64 85.0679 133.363 79.1885C129.085 73.3092 118.948 73.9782 110.717 80.6482C102.486 87.3385 99.2626 97.5158 103.54 103.375C107.818 109.254 117.955 108.585 126.186 101.915Z" fill="url(#paint6_radial_1_2909)"/>
<path style="mix-blend-mode:overlay" opacity="0.2" d="M144.452 116.472C153.515 107.308 162.861 103.72 165.354 108.464C167.828 113.208 162.516 124.48 153.454 133.643C144.392 142.807 135.025 146.395 132.552 141.651C130.078 136.907 135.39 125.635 144.452 116.472Z" fill="url(#paint7_radial_1_2909)"/>
<path d="M56.0596 175.833C53.7484 179.826 48.6597 181.185 44.6658 178.874C40.672 176.583 39.3136 171.474 41.6248 167.48C43.9157 163.486 58.168 155.498 58.168 155.498C58.168 155.498 58.3708 171.818 56.0596 175.812V175.833Z" fill="url(#paint8_radial_1_2909)"/>
<path style="mix-blend-mode:overlay" d="M41.8681 174.454C40.5706 171.089 41.3613 167.52 43.6319 166.527C45.9025 165.513 48.7814 167.439 50.0789 170.825C51.3764 174.211 50.5857 177.759 48.3151 178.752C46.0444 179.766 43.1656 177.84 41.8681 174.454Z" fill="url(#paint9_radial_1_2909)"/>
<path d="M90.9098 175.833C88.6189 179.826 83.51 181.185 79.5161 178.874C75.5222 176.583 74.1638 171.474 76.4548 167.48C78.7659 163.486 92.998 155.498 92.998 155.498C92.998 155.498 93.2007 171.818 90.8895 175.812L90.9098 175.833Z" fill="url(#paint10_radial_1_2909)"/>
<path style="mix-blend-mode:overlay" d="M76.7183 174.454C75.4208 171.089 76.2115 167.52 78.4821 166.527C80.7528 165.513 83.6316 167.439 84.9089 170.825C86.2064 174.211 85.4157 177.759 83.1451 178.752C80.8744 179.766 77.9956 177.84 76.7183 174.454Z" fill="url(#paint11_radial_1_2909)"/>
<path d="M125.76 175.833C123.469 179.826 118.36 181.185 114.366 178.874C110.372 176.583 109.014 171.474 111.305 167.48C113.616 163.486 127.848 155.498 127.848 155.498C127.848 155.498 128.051 171.818 125.74 175.812L125.76 175.833Z" fill="url(#paint12_radial_1_2909)"/>
<path style="mix-blend-mode:overlay" d="M111.569 174.454C110.271 171.089 111.062 167.52 113.332 166.527C115.603 165.513 118.482 167.439 119.759 170.825C121.057 174.211 120.266 177.759 117.995 178.752C115.725 179.766 112.846 177.84 111.569 174.454Z" fill="url(#paint13_radial_1_2909)"/>
<defs>
<radialGradient id="paint0_radial_1_2909" cx="0" cy="0" r="1" gradientUnits="userSpaceOnUse" gradientTransform="translate(3467.11 15.8134) rotate(180) scale(142.908 142.908)">
<stop stop-color="#BAD0D6"/>
<stop offset="0.2" stop-color="#9BBAC2"/>
<stop offset="1" stop-color="#5D8BB8"/>
</radialGradient>
<radialGradient id="paint1_radial_1_2909" cx="0" cy="0" r="1" gradientUnits="userSpaceOnUse" gradientTransform="translate(-195.978 -349.052) rotate(53.97) scale(23.9757 34.8738)">
<stop stop-color="white"/>
<stop offset="0.1" stop-color="white" stop-opacity="0.7225"/>
<stop offset="0.29" stop-color="white" stop-opacity="0.3481"/>
<stop offset="0.47" stop-color="white" stop-opacity="0.1444"/>
<stop offset="0.63" stop-color="white" stop-opacity="0.0484"/>
<stop offset="0.78" stop-color="white" stop-opacity="0.01"/>
<stop offset="0.91" stop-color="white" stop-opacity="0.01"/>
<stop offset="1" stop-color="white" stop-opacity="0"/>
</radialGradient>
<radialGradient id="paint2_radial_1_2909" cx="0" cy="0" r="1" gradientUnits="userSpaceOnUse" gradientTransform="translate(-112.577 -322.207) rotate(53.97) scale(13.191 19.1869)">
<stop stop-color="white"/>
<stop offset="0.1" stop-color="white" stop-opacity="0.7225"/>
<stop offset="0.29" stop-color="white" stop-opacity="0.3481"/>
<stop offset="0.47" stop-color="white" stop-opacity="0.1444"/>
<stop offset="0.63" stop-color="white" stop-opacity="0.0484"/>
<stop offset="0.78" stop-color="white" stop-opacity="0.01"/>
<stop offset="0.91" stop-color="white" stop-opacity="0.01"/>
<stop offset="1" stop-color="white" stop-opacity="0"/>
</radialGradient>
<radialGradient id="paint3_radial_1_2909" cx="0" cy="0" r="1" gradientUnits="userSpaceOnUse" gradientTransform="translate(255.895 137.125) rotate(-146.99) scale(8.08915 22.1489)">
<stop stop-color="white"/>
<stop offset="0.1" stop-color="white" stop-opacity="0.7225"/>
<stop offset="0.29" stop-color="white" stop-opacity="0.3481"/>
<stop offset="0.47" stop-color="white" stop-opacity="0.1444"/>
<stop offset="0.63" stop-color="white" stop-opacity="0.0484"/>
<stop offset="0.78" stop-color="white" stop-opacity="0.01"/>
<stop offset="0.91" stop-color="white" stop-opacity="0.01"/>
<stop offset="1" stop-color="white" stop-opacity="0"/>
</radialGradient>
<radialGradient id="paint4_radial_1_2909" cx="0" cy="0" r="1" gradientUnits="userSpaceOnUse" gradientTransform="translate(36.5767 46.913) rotate(180) scale(142.908 142.908)">
<stop stop-color="white"/>
<stop offset="0.2" stop-color="#D9F7FF"/>
<stop offset="1" stop-color="#89C0F5"/>
</radialGradient>
<radialGradient id="paint5_radial_1_2909" cx="0" cy="0" r="1" gradientUnits="userSpaceOnUse" gradientTransform="translate(-239.203 -320.158) rotate(53.97) scale(23.9757 34.8738)">
<stop stop-color="white"/>
<stop offset="0.1" stop-color="white" stop-opacity="0.7225"/>
<stop offset="0.29" stop-color="white" stop-opacity="0.3481"/>
<stop offset="0.47" stop-color="white" stop-opacity="0.1444"/>
<stop offset="0.63" stop-color="white" stop-opacity="0.0484"/>
<stop offset="0.78" stop-color="white" stop-opacity="0.01"/>
<stop offset="0.91" stop-color="white" stop-opacity="0.01"/>
<stop offset="1" stop-color="white" stop-opacity="0"/>
</radialGradient>
<radialGradient id="paint6_radial_1_2909" cx="0" cy="0" r="1" gradientUnits="userSpaceOnUse" gradientTransform="translate(-155.785 -293.289) rotate(53.97) scale(13.191 19.1869)">
<stop stop-color="white"/>
<stop offset="0.1" stop-color="white" stop-opacity="0.7225"/>
<stop offset="0.29" stop-color="white" stop-opacity="0.3481"/>
<stop offset="0.47" stop-color="white" stop-opacity="0.1444"/>
<stop offset="0.63" stop-color="white" stop-opacity="0.0484"/>
<stop offset="0.78" stop-color="white" stop-opacity="0.01"/>
<stop offset="0.91" stop-color="white" stop-opacity="0.01"/>
<stop offset="1" stop-color="white" stop-opacity="0"/>
</radialGradient>
<radialGradient id="paint7_radial_1_2909" cx="0" cy="0" r="1" gradientUnits="userSpaceOnUse" gradientTransform="translate(221.416 172.987) rotate(-146.99) scale(8.08915 22.1489)">
<stop stop-color="white"/>
<stop offset="0.1" stop-color="white" stop-opacity="0.7225"/>
<stop offset="0.29" stop-color="white" stop-opacity="0.3481"/>
<stop offset="0.47" stop-color="white" stop-opacity="0.1444"/>
<stop offset="0.63" stop-color="white" stop-opacity="0.0484"/>
<stop offset="0.78" stop-color="white" stop-opacity="0.01"/>
<stop offset="0.91" stop-color="white" stop-opacity="0.01"/>
<stop offset="1" stop-color="white" stop-opacity="0"/>
</radialGradient>
<radialGradient id="paint8_radial_1_2909" cx="0" cy="0" r="1" gradientUnits="userSpaceOnUse" gradientTransform="translate(44.8936 173.934) rotate(30) scale(20.0506 20.0505)">
<stop stop-color="#D4F6FF"/>
<stop offset="0.2" stop-color="#D9F7FF"/>
<stop offset="1" stop-color="#89C0F5"/>
</radialGradient>
<radialGradient id="paint9_radial_1_2909" cx="0" cy="0" r="1" gradientUnits="userSpaceOnUse" gradientTransform="translate(342.479 37.1306) rotate(156.04) scale(4.49364 6.5362)">
<stop stop-color="white"/>
<stop offset="0.1" stop-color="white" stop-opacity="0.7225"/>
<stop offset="0.29" stop-color="white" stop-opacity="0.3481"/>
<stop offset="0.47" stop-color="white" stop-opacity="0.1444"/>
<stop offset="0.63" stop-color="white" stop-opacity="0.0484"/>
<stop offset="0.78" stop-color="white" stop-opacity="0.01"/>
<stop offset="0.91" stop-color="white" stop-opacity="0.01"/>
<stop offset="1" stop-color="white" stop-opacity="0"/>
</radialGradient>
<radialGradient id="paint10_radial_1_2909" cx="0" cy="0" r="1" gradientUnits="userSpaceOnUse" gradientTransform="translate(79.7542 173.928) rotate(30) scale(20.0506 20.0505)">
<stop stop-color="#D4F6FF"/>
<stop offset="0.2" stop-color="#D9F7FF"/>
<stop offset="1" stop-color="#89C0F5"/>
</radialGradient>
<radialGradient id="paint11_radial_1_2909" cx="0" cy="0" r="1" gradientUnits="userSpaceOnUse" gradientTransform="translate(378.091 36.81) rotate(156.04) scale(4.49364 6.5362)">
<stop stop-color="white"/>
<stop offset="0.1" stop-color="white" stop-opacity="0.7225"/>
<stop offset="0.29" stop-color="white" stop-opacity="0.3481"/>
<stop offset="0.47" stop-color="white" stop-opacity="0.1444"/>
<stop offset="0.63" stop-color="white" stop-opacity="0.0484"/>
<stop offset="0.78" stop-color="white" stop-opacity="0.01"/>
<stop offset="0.91" stop-color="white" stop-opacity="0.01"/>
<stop offset="1" stop-color="white" stop-opacity="0"/>
</radialGradient>
<radialGradient id="paint12_radial_1_2909" cx="0" cy="0" r="1" gradientUnits="userSpaceOnUse" gradientTransform="translate(114.605 173.94) rotate(30) scale(20.0506 20.0505)">
<stop stop-color="#D4F6FF"/>
<stop offset="0.2" stop-color="#D9F7FF"/>
<stop offset="1" stop-color="#89C0F5"/>
</radialGradient>
<radialGradient id="paint13_radial_1_2909" cx="0" cy="0" r="1" gradientUnits="userSpaceOnUse" gradientTransform="translate(413.685 36.4508) rotate(156.04) scale(4.49364 6.5362)">
<stop stop-color="white"/>
<stop offset="0.1" stop-color="white" stop-opacity="0.7225"/>
<stop offset="0.29" stop-color="white" stop-opacity="0.3481"/>
<stop offset="0.47" stop-color="white" stop-opacity="0.1444"/>
<stop offset="0.63" stop-color="white" stop-opacity="0.0484"/>
<stop offset="0.78" stop-color="white" stop-opacity="0.01"/>
<stop offset="0.91" stop-color="white" stop-opacity="0.01"/>
<stop offset="1" stop-color="white" stop-opacity="0"/>
</radialGradient>
</defs>
</svg>
